<svg width="64" height="64" viewBox="0 0 64 64" fill="none" xmlns="http://www.w3.org/2000/svg">
<path fill-rule="evenodd" clip-rule="evenodd" d="M9.16535 0C4.10347 0 0 4.10347 0 9.16535V54.8346C0 59.8965 4.10347 64 9.16535 64H54.8346C59.8965 64 64 59.8965 64 54.8346V9.16535C64 4.10347 59.8965 0 54.8346 0H9.16535ZM41.9054 48.1815L47.4696 15.1534C47.4938 15.0116 47.4872 14.8662 47.4502 14.7273C47.4132 14.5884 47.3467 14.4594 47.2554 14.3494C47.1642 14.2395 47.0504 14.1512 46.922 14.0908C46.7936 14.0304 46.6538 13.9995 46.5124 14H41.2705C41.0422 13.9999 40.8213 14.0818 40.6466 14.2314C40.472 14.381 40.355 14.5886 40.3162 14.8175L36.3615 38.1621C35.924 40.3291 34.2874 41.7731 32.2674 41.7731C30.1933 41.7731 28.5605 40.3291 28.1734 38.1621L24.1645 14.8175C24.1253 14.5892 24.0082 14.3822 23.8338 14.233C23.6594 14.0838 23.4389 14.002 23.2111 14.002H17.9673C17.8264 14.0021 17.6872 14.0334 17.5595 14.0939C17.4317 14.1544 17.3185 14.2426 17.2277 14.3523C17.1369 14.4619 17.0708 14.5904 17.0338 14.7288C16.9969 14.8672 16.9901 15.0121 17.0139 15.1534L22.5772 48.1815C22.6158 48.4104 22.7326 48.6181 22.907 48.7679C23.0815 48.9177 23.3023 48.9999 23.5305 49H40.9521C41.1803 48.9999 41.4011 48.9177 41.5756 48.7679C41.75 48.6181 41.8668 48.4104 41.9054 48.1815Z" fill="black"/>
</svg>
